<?xml version="1.0" encoding="iso-8859-1" standalone="no"?> 
<?xml-stylesheet href="solenoide-eqv.css" type="text/css"?> 
<svg xmlns="http://www.w3.org/2000/svg" xmlns:xlink="http://www.w3.org/1999/xlink" width="188.87051pt" height="54.43903pt" viewBox="-3.38615 -12.35019 188.87051 54.43903 "> 
<g transform="translate(0, 42.08884 ) scale(1,-1) translate(0,12.35019 )"> 
 <g>
 <g stroke="rgb(0.0%,0.0%,0.0%)">
 <g fill="rgb(0.0%,0.0%,0.0%)">
 <g stroke-width="0.4pt">
 <g>
 <path d=" M  0.0 0.0 L  0.4 0.0 M  45.52454 0.0 M  0.0 0.0 L  21.62411 0.0 M  69.42496 0.0 L  91.0491 0.0 M  0.0 0.0 M  45.52454 13.14526 M  45.52454 13.14526 M  45.52454 26.06174 M  45.52454 26.06174 M  90.64911 0.0 L  91.0491 0.0 L  91.4491 0.0 M  136.57364 0.0 M  91.0491 0.0 L  104.7066 0.0 M  168.44067 0.0 L  182.0982 0.0 M  182.0982 0.0 M  136.57364 13.14526 M  136.57364 13.14526 M  136.57364 26.06174 M  136.57364 26.06174 M  181.69821 0.0 L  182.0982 0.0  " style="fill:none"/>
 <g>
 </g>
 <g>
 </g>
 <g>
 <g stroke="rgb(0.0%,0.0%,0.0%)">
 <g fill="rgb(0.0%,0.0%,0.0%)">
 <g stroke-width="0.79999pt">
 <g stroke-linecap="butt">
 <g stroke-linejoin="bevel">
 <path d=" M  21.22412 -0.15997 C  21.22412 6.44 24.47003 11.79022 28.47412 11.79022 C  32.47821 11.79022 35.72412 6.44 35.72412 -0.15997 C  35.72412 -3.45978 34.38663 -6.13477 32.73672 -6.13477 C  31.08682 -6.13477 29.74933 -3.45978 29.74933 -0.15997 C  29.74933 6.44 32.99524 11.79022 36.99933 11.79022 C  41.00342 11.79022 44.24933 6.44 44.24933 -0.15997 C  44.24933 -3.45978 42.91183 -6.13477 41.26193 -6.13477 C  39.61203 -6.13477 38.27454 -3.45978 38.27454 -0.15997 C  38.27454 6.44 41.52045 11.79022 45.52454 11.79022 C  49.52863 11.79022 52.77454 6.44 52.77454 -0.15997 C  52.77454 -3.45978 51.43704 -6.13477 49.78714 -6.13477 C  48.13724 -6.13477 46.79974 -3.45978 46.79974 -0.15997 C  46.79974 6.44 50.04565 11.79022 54.04974 11.79022 C  58.05383 11.79022 61.29974 6.44 61.29974 -0.15997 C  61.29974 -3.45978 59.96225 -6.13477 58.31235 -6.13477 C  56.66245 -6.13477 55.32495 -3.45978 55.32495 -0.15997 C  55.32495 6.44 58.57086 11.79022 62.57495 11.79022 C  66.57904 11.79022 69.82495 6.44 69.82495 -0.15997  " style="fill:none"/>
 <g stroke-width="0.4pt">
 <g>
 <g transform="matrix(2.0,0.0,0.0,2.0,45.52454,0.0)">
 <g fill="rgb(0.0%,0.0%,0.0%)">
 <text style="stroke:none" transform="scale(1,-1) translate(0.0,0)" text-anchor="middle"  font-size="10"> 
</text> 
</g>
 </g>
 </g>
 </g>
 </g>
 </g>
 </g>
 </g>
 </g>
 </g>
 <g>
 </g>
 <g>
 </g>
 <g>
 <g>
 <g transform="matrix(2.0,0.0,0.0,2.0,0.0,0.0)">
 <g fill="rgb(0.0%,0.0%,0.0%)">
 <text style="stroke:none" transform="scale(1,-1) translate(0.0,0)" text-anchor="middle"  font-size="10"> 
</text> 
</g>
 </g>
 </g>
 <g>
 <g>
 <g stroke="rgb(0.0%,0.0%,0.0%)">
 <g fill="rgb(0.0%,0.0%,0.0%)">
 <g fill="rgb(100.0%,100.0%,100.0%)">
 <path d=" M  3.18616 0.0 C  3.18616 1.75967 1.75967 3.18616 0.0 3.18616 C  -1.75967 3.18616 -3.18616 1.75967 -3.18616 0.0 C  -3.18616 -1.75967 -1.75967 -3.18616 0.0 -3.18616 C  1.75967 -3.18616 3.18616 -1.75967 3.18616 0.0 Z M  0.0 0.0  " />
 </g>
 </g>
 </g>
 </g>
 </g>
 </g>
 <g>
 </g>
 <g>
 </g>
 <g>
 <g>
 <g transform="matrix(2.0,0.0,0.0,2.0,38.71896,21.75626)">
 <g fill="rgb(0.0%,0.0%,0.0%)">
 <text style="stroke:none" transform="scale(1,-1) translate(3.40279,0)" text-anchor="middle"  font-size="10"> 
<tspan font-family="lmmi" font-size="10">L</tspan></text> 
</g>
 </g>
 </g>
 </g>
 <g>
 </g>
 <g>
 </g>
 <g>
 <g stroke="rgb(0.0%,0.0%,0.0%)">
 <g fill="rgb(0.0%,0.0%,0.0%)">
 <g stroke-width="0.79999pt">
 <g stroke-linejoin="bevel">
 <path d=" M  104.30661 0.0 L  110.05109 11.9502 L  120.74005 -11.9502 L  131.42902 11.9502 L  142.11798 -11.9502 L  152.80695 11.9502 L  163.49591 -11.9502 L  168.8404 0.0  " style="fill:none"/>
 <g stroke-width="0.4pt">
 <g>
 <g transform="matrix(2.0,0.0,0.0,2.0,136.57364,0.0)">
 <g fill="rgb(0.0%,0.0%,0.0%)">
 <text style="stroke:none" transform="scale(1,-1) translate(0.0,0)" text-anchor="middle"  font-size="10"> 
</text> 
</g>
 </g>
 </g>
 </g>
 </g>
 </g>
 </g>
 </g>
 </g>
 <g>
 </g>
 <g>
 </g>
 <g>
 <g>
 <g transform="matrix(2.0,0.0,0.0,2.0,182.0982,0.0)">
 <g fill="rgb(0.0%,0.0%,0.0%)">
 <text style="stroke:none" transform="scale(1,-1) translate(0.0,0)" text-anchor="middle"  font-size="10"> 
</text> 
</g>
 </g>
 </g>
 <g>
 <g>
 <g stroke="rgb(0.0%,0.0%,0.0%)">
 <g fill="rgb(0.0%,0.0%,0.0%)">
 <g fill="rgb(100.0%,100.0%,100.0%)">
 <path d=" M  185.28436 0.0 C  185.28436 1.75967 183.85788 3.18616 182.0982 3.18616 C  180.33853 3.18616 178.91205 1.75967 178.91205 0.0 C  178.91205 -1.75967 180.33853 -3.18616 182.0982 -3.18616 C  183.85788 -3.18616 185.28436 -1.75967 185.28436 0.0 Z M  182.0982 0.0  " />
 </g>
 </g>
 </g>
 </g>
 </g>
 </g>
 <g>
 </g>
 <g>
 </g>
 <g>
 <g>
 <g transform="matrix(2.0,0.0,0.0,2.0,128.9035,21.75626)">
 <g fill="rgb(0.0%,0.0%,0.0%)">
 <text style="stroke:none" transform="scale(1,-1) translate(3.83507,0)" text-anchor="middle"  font-size="10"> 
<tspan font-family="lmmi" font-size="10">R</tspan></text> 
</g>
 </g>
 </g>
 </g>
 </g>
 </g>
 </g>
 </g>
 </g>
 
                                                </g> 
</svg> 
